<svg width="482" height="282" viewBox="0 0 482 282" fill="none" xmlns="http://www.w3.org/2000/svg">
<path d="M213.522 170.206H220.321C220.613 170.206 220.893 170.093 221.095 169.882C222.345 168.577 223.526 167.018 224.523 165.091C226.467 161.562 230.213 152.162 230.283 144.453L230.139 137.175H206.553C203.506 137.175 201.035 139.646 201.035 142.693V144.885H220.487C220.487 148.863 217.739 161.721 212.679 168.499C212.153 169.206 212.641 170.206 213.522 170.206Z" fill="#CE1E33"/>
<path d="M249.519 135.543H244.353C242.511 135.543 241.019 137.035 241.019 138.875V169.405H249.519V135.543Z" fill="#CE1E33"/>
<path d="M215.083 181.724H243.036V188.495H215.083V181.724ZM212.046 196.133H249.808V174.159H212.015C209.492 174.159 207.447 176.204 207.447 178.727V191.536C207.447 194.075 209.506 196.133 212.046 196.133Z" fill="#CE1E33"/>
<path d="M301.033 136.84H266.562C263.756 136.84 261.48 139.116 261.48 141.923V144.26H301.033V136.84Z" fill="#CE1E33"/>
<path d="M286.839 173.87H277.691V181.435H258.382C256.272 181.435 254.563 183.145 254.563 185.253V185.831C254.563 187.939 256.272 189.649 258.382 189.649H309.174V187.869C309.174 184.315 306.294 181.435 302.742 181.435H286.839V173.87Z" fill="#CE1E33"/>
<path d="M301.823 163.496H269.766V155.931H301.033V148.51H261.479V170.99H301.823V163.496Z" fill="#CE1E33"/>
<path d="M312.778 148.079H322.647C322.101 157.079 319.621 164.144 313.798 170.434C313.158 171.126 312.778 172.02 312.778 172.962C312.778 176.17 316.637 177.854 318.95 175.632C319.877 174.743 320.773 173.798 321.639 172.791C326.106 167.53 330.717 159.463 331.293 148.079H338.354C337.805 158.311 336.075 165.728 329.363 172.952C328.719 173.646 328.339 174.543 328.339 175.49V175.875C328.339 179.067 332.141 180.739 334.483 178.57C340.55 172.951 347.214 163.054 347.214 148.295V140.515H316.959C314.65 140.515 312.778 142.387 312.778 144.696V148.079Z" fill="#CE1E33"/>
<path d="M352.762 196.134H362.27V135.543H356.909C354.62 135.543 352.762 137.401 352.762 139.69V196.134Z" fill="#CE1E33"/>
<path d="M416.846 135.543H412.842C409.96 135.543 407.624 137.879 407.624 140.762V166.414C407.624 168.902 409.64 170.917 412.127 170.917H412.343C414.83 170.917 416.846 168.902 416.846 166.414V155.787H424.914V147.359H416.846V135.543Z" fill="#CE1E33"/>
<path d="M410.398 186.335C410.398 187.702 408.238 188.424 406.507 188.424H384.063C382.192 188.424 380.172 188.424 380.172 186.335V184.246C380.172 182.516 381.111 181.795 383.92 181.795H406.507C409.028 181.795 410.398 182.732 410.398 184.1V186.335ZM409.462 174.304H381.038C374.987 174.304 371.024 176.898 371.024 182.302V187.775C371.024 193.251 374.626 195.484 381.255 195.484H409.751C414.72 195.484 418.826 191.808 418.826 187.847V182.083C418.826 177.544 414.648 174.304 409.462 174.304Z" fill="#CE1E33"/>
<path d="M385.975 152.043C388.28 157.589 391.449 163.64 394.333 167.099H401.478C402.97 167.099 403.848 165.407 402.97 164.199C398.256 157.712 392.784 146.569 391.347 139.225C391.069 137.807 389.801 136.804 388.357 136.804H383.861C382.464 136.804 381.251 137.744 380.899 139.097C379.559 144.268 375.446 156.468 368.561 164.029C367.485 165.211 368.307 167.099 369.905 167.099H377.548C381.654 161.839 383.525 157.012 385.975 152.043Z" fill="#CE1E33"/>
<path d="M476.718 170.772C479.203 170.772 481.221 168.756 481.221 166.269V135.616H475.719C473.783 135.616 472.214 137.185 472.214 139.121V150.168H463.135V158.524H472.214V166.269C472.214 168.756 474.231 170.772 476.718 170.772Z" fill="#CE1E33"/>
<path d="M445.847 156.507C447.287 158.454 448.872 160.326 450.531 161.983C453.411 164.866 457.228 168.035 461.48 169.405V160.541C459.679 159.462 457.951 158.235 456.365 156.869C453.555 154.563 450.6 151.319 449.233 147.574H462.272V139.218H428.049V147.574H442.097C440.804 150.961 437.203 157.011 428.843 161.118V169.477C431.149 168.685 433.383 167.603 435.543 166.379C439.219 164.289 443.468 161.046 445.847 156.507Z" fill="#CE1E33"/>
<path d="M473.439 187.991H437.62V181.94H473.439V187.991ZM429.766 176.941V192.989C429.766 194.527 431.011 195.772 432.548 195.772H477.947C479.834 195.772 481.364 194.243 481.364 192.356V177.575C481.364 175.688 479.834 174.159 477.947 174.159H432.548C431.011 174.159 429.766 175.404 429.766 176.941Z" fill="#CE1E33"/>
<path d="M97.261 80.3058C97.3197 80.3924 97.3823 80.4791 97.4423 80.5671C97.3837 80.4778 97.3237 80.3911 97.261 80.3058Z" fill="white"/>
<path d="M85.0415 53.7972C84.7829 56.1865 83.9029 58.3025 82.1455 60.0265C81.2829 60.8719 80.3815 61.4679 79.1162 61.3945C77.7842 61.3185 76.6362 61.8145 75.6602 62.7025C75.3122 63.0199 75.0002 63.3279 74.4669 63.2599C72.9615 63.0692 71.7082 63.7092 70.4869 64.4799C69.9895 64.7932 69.5322 65.2692 68.8229 64.8839C68.0856 64.4825 68.1829 63.8225 68.1815 63.1772C68.1802 61.3692 68.1815 59.5612 68.1815 57.7545C68.2349 49.0452 69.1936 40.4252 71.2562 31.9719C72.1322 28.3812 73.0629 24.7652 74.6335 21.3759C75.1842 20.1865 75.8136 19.0465 76.6482 18.0359C77.7535 16.6959 78.6095 16.8812 79.6295 18.2719C81.7309 21.1345 82.0549 24.5972 83.1029 27.8145C85.8722 36.3185 85.9922 45.0199 85.0415 53.7972ZM71.3469 11.9772C71.0269 12.1239 70.7216 12.2945 70.4282 12.4839C67.4842 17.6065 65.2362 23.0212 63.7949 28.7492C62.0976 36.9492 61.7989 45.3012 62.1322 53.7585C62.2522 54.8772 62.3936 55.9959 62.5682 57.1145C62.8816 59.1239 63.1775 61.1399 63.3722 63.1639C63.5535 65.0385 64.5029 66.6559 64.9602 68.4319C65.0776 68.8892 65.4416 68.7292 65.7162 68.6812C66.5962 68.5239 67.4816 68.5079 68.3576 68.6079C68.9629 68.6785 69.1149 68.4519 69.2456 67.8999C69.5789 66.4959 71.7016 64.7372 73.1616 64.5532C73.2762 64.5399 73.4282 64.4865 73.5002 64.5385C74.7442 65.4332 75.3469 64.3052 76.1162 63.7159C76.9562 63.0719 77.8749 62.6265 78.9442 62.5492C80.3029 62.4519 80.7349 62.7945 80.9802 64.1385C81.0202 64.3559 80.9616 64.6092 81.2029 64.7972C82.2549 64.4332 83.0362 63.7092 83.6496 62.8292C83.9189 62.2039 84.2122 61.5825 84.5122 60.9639C84.6202 60.9465 84.7255 60.9212 84.8309 60.8932C87.3855 56.3705 88.9722 51.5025 89.4109 46.2745C89.6949 42.8879 89.7362 39.5425 89.5629 36.2332C89.5442 36.1479 89.5269 36.0639 89.5096 35.9799C89.5122 35.8332 89.5176 35.6879 89.5189 35.5425C89.0496 27.8812 87.4309 20.4119 84.9776 13.0892C84.5682 12.2745 84.3042 11.5145 84.1429 10.6865C83.6642 9.35986 83.1655 8.0372 82.6349 6.71853C82.1362 5.47586 81.6709 4.22119 81.0296 3.03986C80.9162 2.83186 80.8095 2.63186 80.6922 2.44653C79.2922 1.91986 77.4269 2.18653 76.5362 3.27319C75.6909 4.45853 74.8522 5.64919 74.0189 6.84386C72.9882 8.48519 72.0962 10.1852 71.3469 11.9772Z" fill="white"/>
<path d="M23.3351 29.3532C23.2138 29.6278 23.1138 29.9145 23.0298 30.2132C23.0698 32.0038 23.1925 33.7958 23.2965 35.5865C23.4311 37.8998 23.6898 40.1825 24.0258 42.4465C24.1698 43.3638 24.3258 44.2785 24.4885 45.1918C25.7885 52.2558 27.9831 59.0985 30.8231 65.7758C33.7218 72.5905 37.7591 78.6892 42.4178 84.3918C43.0751 85.0572 43.7618 85.5758 44.4685 85.9492C44.6498 85.7785 44.8325 85.4638 45.0578 84.9732C45.5938 83.8132 46.2858 82.7625 47.0951 81.7812C47.3818 81.4345 47.5871 81.0985 47.2031 80.6705C44.9898 78.2092 43.4031 75.2825 41.3378 72.7105C38.7605 69.4998 36.6365 65.9892 34.4991 62.4838C32.0765 58.5092 30.6258 54.1358 29.6551 49.6545C28.9605 46.4478 28.8365 43.1065 28.5965 39.8158C28.4485 37.7692 29.5031 37.1825 31.3885 38.1065C31.7258 38.2718 32.0565 38.5038 32.3125 38.7772C38.4805 45.3718 44.6978 51.9332 49.2231 59.8412C51.2965 63.4638 53.2365 67.1612 55.2658 70.8092C56.1498 72.3998 56.4858 72.4092 57.6498 70.9638C57.8844 70.6732 58.1485 70.6638 58.4538 70.6385C59.6178 70.5438 60.6391 69.9572 61.7418 69.6438C62.3538 69.4705 62.4844 68.9692 62.0124 68.4918C61.3831 67.8558 61.1164 67.0985 61.0031 66.2318C60.9458 65.7838 60.7724 65.3372 60.5778 64.9252C57.0711 57.5252 53.3671 50.2465 48.7178 43.5318C47.6285 42.1372 46.5325 40.7478 45.4138 39.3812C43.6818 37.2652 40.8311 34.9105 39.4791 32.3185C36.0805 28.7292 32.4871 25.3358 28.6965 22.1412C28.4165 21.9052 28.1445 21.6598 27.8711 21.4145C26.1871 21.0425 24.2031 22.0292 23.5045 23.5998C23.2085 25.1145 23.0698 26.6345 23.0311 28.1585C23.0845 28.5745 23.1858 28.9758 23.3351 29.3532Z" fill="white"/>
<path d="M75.7127 94.9574C75.3247 95.9027 74.7287 96.6774 73.6194 96.6427C72.4461 96.6067 71.5861 95.96 71.1914 94.8427C70.7047 93.4654 70.2941 92.064 70.4434 90.5707C70.2941 89.152 70.6594 87.82 71.2141 86.5467C71.8741 85.0307 73.6594 84.5454 74.8327 85.5C75.3021 85.8814 75.5434 86.3 75.1274 86.8774C74.9954 87.0627 74.9127 87.2827 74.8114 87.488C73.8607 89.4214 73.8541 89.432 75.6767 90.5974C76.1447 90.8987 76.4127 91.268 76.3701 91.8187C76.2847 92.892 76.1261 93.9534 75.7127 94.9574ZM67.3087 82.1187C66.9314 82.604 66.4754 82.812 65.9034 82.596C65.2421 82.3467 65.3434 81.7414 65.3834 81.2174C65.4767 80.0014 67.0181 78.7334 68.6967 78.468C68.9621 78.4267 69.2327 78.4214 69.5274 78.396C69.7687 78.4187 70.0421 78.4187 70.3021 78.4747C70.8981 78.6014 71.2647 78.94 71.2061 79.5987C71.1541 80.18 70.8314 80.516 70.2434 80.5374C69.0021 80.5827 68.0501 81.168 67.3087 82.1187ZM68.4754 106.347L68.5101 106.613C67.7127 105.812 67.6967 105.72 68.4754 106.347ZM44.2821 105.912C44.6887 106.207 44.6154 106.605 44.4234 106.94C43.9887 107.699 43.4941 108.424 43.0194 109.169C43.2567 109.484 43.5434 109.351 43.7807 109.387C44.7981 109.54 45.0941 109.943 44.6594 110.868C44.1367 111.979 43.9541 113.121 43.9394 114.327C43.9327 114.864 44.0181 115.024 44.6327 114.993C45.8314 114.933 46.3514 115.763 45.7487 116.789C45.2994 117.555 45.3407 118.337 45.3581 119.179C45.5474 119.348 45.7434 119.509 45.9474 119.66C46.1674 119.555 46.3794 119.457 46.5967 119.383C48.0821 118.867 49.1341 119.332 49.7594 120.781C50.2274 121.872 50.6767 122.969 51.1234 124.068C51.2514 124.385 51.3141 124.736 51.7821 124.964C51.6367 123.705 50.9487 122.407 52.2287 121.376C52.3314 121.544 52.4701 121.692 52.5181 121.865C53.3647 124.891 55.2341 127.141 57.6581 128.928C59.4754 130.149 61.3461 131.24 63.1594 132.204C63.1994 132.312 63.2461 132.42 63.2941 132.528C63.7687 132.813 64.2434 133.104 64.7207 133.388C67.6541 135.129 68.9074 137.543 68.3154 141.013C67.8247 143.892 67.9674 143.923 70.8567 144.472C74.3487 145.137 77.7901 145.189 81.1061 143.636C81.7247 143.347 82.1287 142.997 82.0661 142.255C82.0287 141.804 82.3074 141.456 82.5687 141.123C82.7567 140.881 83.1141 140.68 83.1501 140.425C83.3634 138.908 84.5821 138.539 85.7087 138.001C86.2141 137.76 86.7781 137.409 87.0514 136.951C87.5194 136.171 88.1941 135.773 88.9207 135.471C88.9554 135.355 88.9834 135.237 89.0127 135.12C90.4061 134.215 91.6981 133.144 92.8541 131.96C93.3981 131.405 93.9741 130.767 94.5327 130.089C94.5741 130.091 94.6101 130.096 94.6514 130.096C94.7141 130.096 94.7714 130.088 94.8327 130.087C94.8794 129.992 94.9341 129.907 94.9767 129.811C95.2154 129.28 95.6501 128.749 96.2674 128.801C97.1287 128.873 97.3821 128.463 97.5314 127.748C97.6074 127.383 97.8021 127.032 97.9927 126.703C98.2927 126.188 98.7847 126.095 99.2941 126.297C99.7981 126.497 100.077 126.899 100.015 127.352C99.9754 127.513 99.9327 127.671 99.8887 127.827C100.461 127.157 100.891 126.379 101.181 125.545C101.201 124.835 101.318 124.113 101.035 123.42C100.91 123.116 100.878 122.811 101.178 122.589C101.461 122.38 101.77 122.429 102.037 122.621C102.666 123.075 102.919 122.781 103.049 122.153C103.141 121.704 103.291 121.264 103.365 120.812C103.505 119.944 103.871 119.365 104.866 119.465C105.666 119.547 105.678 118.931 105.778 118.412C106.518 114.592 106.286 110.756 105.906 106.927C105.842 106.283 105.854 105.631 105.835 104.981C105.433 103.804 104.929 102.653 104.342 101.539C104.061 101.576 103.719 101.761 103.277 102.079C101.719 103.2 100.923 104.539 101.133 106.565C101.319 108.367 100.933 110.167 100.071 111.801C99.7514 112.409 99.9287 112.553 100.534 112.676C101.278 112.825 102.233 112.919 102.638 113.413C102.891 113.721 102.365 114.751 102.081 115.412C100.462 119.189 99.6101 120.125 95.8927 120.003C95.3554 119.984 94.8181 119.957 94.2794 119.96C92.3021 119.965 91.0821 118.917 90.7981 116.943C90.7487 116.601 90.7061 116.255 90.7101 115.909C90.7154 115.14 90.3034 115.007 89.6674 115.176C88.0274 115.611 86.4647 116.216 85.0794 117.225C83.1714 118.613 82.8581 121.215 84.4407 122.975C84.9247 123.512 85.5354 123.935 86.0887 124.408C86.2634 124.559 86.4474 124.699 86.6207 124.851C88.8967 126.845 89.5501 128.661 88.6701 130.545C87.4967 133.056 84.8807 134.452 82.1461 134C77.7301 133.271 74.9567 130.485 73.0501 126.648C71.6501 123.831 71.2461 120.727 70.5287 117.713C70.1741 116.224 69.7714 114.745 69.4087 113.257C69.2514 112.609 69.0061 111.988 68.5381 111.532C66.9434 109.973 65.4487 108.345 64.5381 106.235C64.0274 106.613 64.1727 107.149 63.9274 107.524C63.7021 107.868 63.4421 108.163 63.0194 108.123C62.5581 108.079 62.3034 107.769 62.1754 107.307C61.6074 105.253 63.8821 102.492 65.9687 102.739C66.7154 102.827 67.3381 103.121 67.2687 104.027C67.2127 104.747 66.6994 105.065 65.6087 105.003C67.1287 106.728 68.5327 108.373 70.1301 109.84C70.5874 110.26 71.1794 110.467 71.8034 110.537C73.4754 110.725 73.6621 110.581 74.1354 108.992C75.4154 104.681 77.7207 101.031 81.2794 98.2534C82.7954 97.0707 84.4767 96.1374 86.4767 96.04C87.0047 96.0134 87.2141 95.696 87.3274 95.2587C87.4527 94.776 87.5834 94.2934 87.6741 93.8054C88.0261 91.9067 89.1714 90.732 90.9901 90.2267C91.8261 89.9947 91.9901 89.624 91.8461 88.7547C91.5794 87.1627 90.9407 85.5534 91.7674 83.912C92.1581 83.1347 92.6847 82.824 93.5194 83.0267C94.5527 83.2774 94.7847 83.7974 94.3141 84.8107C93.6821 86.172 94.8687 88.3774 96.3607 88.616C97.4847 88.796 98.2541 87.9654 97.9914 86.8347C97.5247 84.8214 97.1127 82.788 96.1114 80.9454C95.4967 79.8174 94.7314 78.8227 93.5821 78.18C93.0354 77.8734 92.4821 77.6134 91.8421 77.9014C91.5754 78.0214 91.3314 77.952 91.0647 77.8667C90.0941 77.5534 89.1261 77.4774 88.1407 77.8734C87.4394 78.156 86.7941 77.9587 86.5047 77.2547C86.1967 76.5027 86.9194 76.2454 87.3874 75.9947C88.2887 75.512 89.2821 75.3654 90.2914 75.5854C90.9847 75.7347 91.0634 75.5107 90.9287 74.876C90.8501 74.5014 90.7354 74.1454 90.5901 73.8094C89.4981 72.6507 88.3274 71.6174 87.0754 70.7574C86.1661 70.4734 85.1581 70.3574 84.0727 70.488C82.5061 70.676 80.9407 70.6587 78.9781 70.7454C80.1114 69.844 81.6434 69.564 81.0261 67.9187C80.5181 67.9147 80.0074 68.3107 79.4207 68.4547C78.0754 68.7814 77.2647 68.356 76.9181 67.0307C76.7927 66.548 76.6381 66.5507 76.1634 66.536C74.8501 66.496 73.7847 67.0254 72.7407 67.6894C72.1354 68.0747 71.5221 68.44 70.6581 68.7294C71.9434 69.3774 73.2074 69.5574 74.5567 70.412C73.6567 70.412 73.0461 70.4094 72.4341 70.412C70.9354 70.4214 69.4367 70.4187 67.9381 70.4467C66.3154 70.4774 64.7234 70.6027 63.3581 71.6694C63.0127 71.94 62.5261 72.084 62.0834 72.1667C59.7301 72.6014 57.8181 73.7907 56.1447 75.4614C55.4687 76.136 54.6887 76.7147 53.9274 77.296C52.3167 78.5254 51.0461 80.0294 49.9994 81.7654C48.8914 83.6027 47.5274 85.2974 46.5447 87.1947C45.6274 88.9667 43.7101 89.94 43.0887 91.9027C42.9461 92.3534 42.5927 92.692 43.2954 92.9694C43.8754 93.1974 43.7754 93.7907 43.8154 94.2694C44.0007 96.464 43.1594 98.4974 42.7541 100.597C42.6221 101.283 42.4741 101.664 43.4341 101.604C44.2554 101.553 44.7274 102.175 45.0381 102.88C45.3274 103.541 45.0381 104.071 44.6101 104.553C44.1954 105.024 43.8434 105.213 43.6154 104.832C43.6061 104.9 43.5941 104.965 43.5847 105.035C43.5581 105.231 43.4847 105.592 43.4021 106.019C43.4167 106.001 43.4327 105.984 43.4474 105.965C43.6567 105.717 43.9847 105.697 44.2821 105.912Z" fill="white"/>
<path d="M133.533 156.603C133.761 156.203 133.985 155.803 134.214 155.405C134.138 155.445 134.148 155.424 134.222 155.389C134.544 154.829 134.869 154.271 135.18 153.707C135.693 152.771 135.865 151.763 135.77 150.701C135.705 149.973 135.352 149.711 134.616 149.819C131.876 150.223 130.286 151.904 130.125 154.611C130.096 155.103 130.262 155.535 130.589 155.869C132.292 157.619 133.393 159.684 133.946 162.059C134.034 162.439 134.264 162.789 134.48 163.239C134.578 163.193 134.677 163.153 134.77 163.091C134.798 163.072 134.829 163.055 134.857 163.036C135.588 162.461 136.293 161.908 136.989 161.353C138.478 160.164 140.116 159.304 142.012 158.952C143.956 158.591 145.301 157.393 146.29 155.74C147.058 154.459 146.729 153.701 145.228 153.543C144.124 153.425 143.001 153.455 141.888 153.472C141.2 153.483 140.537 153.407 139.892 153.207C139.192 153.291 138.5 153.425 137.824 153.623C137.54 154.492 137.07 155.315 136.354 156.075C135.476 157.004 134.86 157.116 133.533 156.603Z" fill="white"/>
<path d="M100.745 90.2933C102.118 89.8307 103.403 90.1787 104.523 90.9973C105.162 91.464 105.291 92.2213 104.989 92.9667C104.554 94.032 103.685 94.132 102.769 93.9133C102.321 93.9133 101.923 93.8413 101.563 93.9267C100.494 94.1773 99.7461 93.8267 99.3861 92.8027C99.0861 91.9493 99.8127 90.6067 100.745 90.2933ZM99.9541 114.68C100.161 114.952 99.9301 115.203 99.8007 115.415C99.2821 116.265 99.0634 117.293 98.2727 118.021C98.3087 117.025 98.5021 116.067 98.3941 115.091C98.3541 114.725 98.6874 114.56 98.9954 114.508C99.3221 114.452 99.7021 114.351 99.9541 114.68ZM95.0487 117.881C93.7901 117.913 92.6514 116.221 93.2447 115.132C93.6954 114.305 94.5354 114.745 95.2141 114.656C95.7781 114.581 95.9461 114.901 96.0301 115.357C96.0914 115.696 96.1741 116.029 96.2354 116.367C96.5261 117.971 96.8341 117.693 95.0487 117.881ZM87.8981 114.361C86.0621 114.961 84.1994 115.385 82.2501 114.921C81.1341 114.655 80.1567 114.152 79.4541 113.231C78.7407 112.293 77.8994 111.516 76.8101 111.071C76.1487 110.801 76.0874 110.417 76.2701 109.805C77.6087 105.308 80.1261 101.655 83.9941 98.9667C84.3674 98.7067 84.7834 98.4907 85.2074 98.324C86.7421 97.7187 87.0634 97.856 87.6887 99.364C88.4567 101.211 89.9127 102.131 91.8087 102.459C92.5274 102.583 93.2621 102.617 93.9767 102.756C97.2167 103.385 99.1221 105.765 99.1114 109.4C99.1034 109.521 99.1061 109.909 99.0447 110.288C98.7114 112.337 98.7047 112.304 96.6087 112.391C93.5901 112.515 90.7421 113.431 87.8981 114.361ZM84.3754 126.952C84.3647 129.196 82.3554 130.759 80.1607 130.24C78.2701 129.793 76.5967 129.016 75.6754 127.175C74.8887 125.604 75.1407 124.272 76.3061 123.472C77.4341 122.697 78.5141 122.861 79.2527 124.028C79.6154 124.601 80.0007 124.675 80.5941 124.533C81.4847 124.321 82.3594 124.481 83.1581 124.904C83.9567 125.329 84.4367 125.991 84.3754 126.952ZM44.6101 104.553C45.0381 104.071 45.3274 103.541 45.0381 102.88C44.7274 102.175 44.2554 101.553 43.4341 101.604C42.4741 101.664 42.6221 101.283 42.7541 100.597C43.1607 98.4973 44.0007 96.464 43.8154 94.2693C43.7754 93.792 43.8754 93.1973 43.2954 92.9693C42.5927 92.692 42.9461 92.3533 43.0887 91.9027C43.7101 89.94 45.6274 88.9667 46.5447 87.1947C47.5274 85.2973 48.8914 83.6027 49.9994 81.7653C51.0461 80.0293 52.3167 78.5253 53.9274 77.296C54.6887 76.7147 55.4687 76.136 56.1447 75.4613C57.8181 73.792 59.7301 72.6013 62.0834 72.1667C62.5261 72.084 63.0127 71.94 63.3581 71.6693C64.7234 70.6027 66.3154 70.4773 67.9381 70.4467C69.4367 70.4187 70.9354 70.4213 72.4341 70.412C73.0461 70.4093 73.6567 70.412 74.5567 70.412C73.2074 69.5573 71.9434 69.3773 70.6581 68.7293C71.5221 68.44 72.1354 68.0747 72.7407 67.6893C73.7847 67.0253 74.8501 66.496 76.1634 66.536C76.6381 66.5507 76.7927 66.548 76.9181 67.0307C77.2647 68.356 78.0754 68.7813 79.4207 68.4547C80.0074 68.3107 80.5194 67.9147 81.0261 67.9187C81.6434 69.564 80.1114 69.844 78.9781 70.7453C80.9407 70.6587 82.5061 70.676 84.0727 70.488C85.1581 70.3573 86.1661 70.4733 87.0754 70.7573C88.6807 71.256 89.9474 72.3227 90.5901 73.8093C90.7354 74.1453 90.8501 74.5013 90.9287 74.876C91.0634 75.512 90.9847 75.736 90.2914 75.5853C89.2821 75.3653 88.2887 75.512 87.3874 75.9947C86.9194 76.2453 86.1967 76.5027 86.5047 77.2547C86.7941 77.9587 87.4394 78.156 88.1407 77.8747C89.1261 77.4773 90.0941 77.5533 91.0647 77.8667C91.3314 77.952 91.5767 78.0213 91.8421 77.9013C92.4821 77.6133 93.0354 77.8733 93.5821 78.18C94.7314 78.8227 95.4967 79.8173 96.1114 80.9453C97.1127 82.788 97.5247 84.8213 97.9914 86.8347C98.2541 87.9653 97.4847 88.796 96.3607 88.616C94.8687 88.3773 93.6821 86.172 94.3141 84.8107C94.7847 83.7973 94.5527 83.2773 93.5194 83.0267C92.6847 82.824 92.1581 83.1347 91.7674 83.912C90.9407 85.5533 91.5794 87.1627 91.8461 88.7547C91.9914 89.6253 91.8274 89.9947 90.9914 90.2267C89.1714 90.732 88.0261 91.9067 87.6741 93.8053C87.5834 94.2933 87.4527 94.776 87.3274 95.2587C87.2141 95.696 87.0047 96.0133 86.4767 96.04C84.4767 96.1373 82.7954 97.0707 81.2794 98.2533C77.7207 101.031 75.4154 104.683 74.1354 108.992C73.6621 110.581 73.4754 110.725 71.8034 110.537C71.1794 110.467 70.5874 110.26 70.1301 109.84C68.5327 108.373 67.1287 106.728 65.6087 105.003C66.6994 105.065 67.2127 104.747 67.2687 104.027C67.3381 103.121 66.7167 102.827 65.9687 102.739C63.8821 102.492 61.6074 105.253 62.1754 107.307C62.3034 107.769 62.5581 108.079 63.0194 108.123C63.4421 108.163 63.7021 107.868 63.9274 107.524C64.1727 107.149 64.0274 106.613 64.5381 106.236C65.4487 108.345 66.9434 109.973 68.5381 111.532C69.0061 111.988 69.2514 112.609 69.4101 113.257C69.7727 114.745 70.1741 116.224 70.5287 117.713C71.2461 120.727 71.6501 123.831 73.0501 126.648C74.9567 130.485 77.7301 133.271 82.1461 134C84.8821 134.452 87.4967 133.056 88.6701 130.545C89.5501 128.661 88.8967 126.845 86.6207 124.851C86.4474 124.699 86.2634 124.559 86.0887 124.408C85.5354 123.935 84.9247 123.512 84.4407 122.975C82.8581 121.215 83.1714 118.613 85.0794 117.225C86.4647 116.216 88.0274 115.611 89.6674 115.176C90.3034 115.007 90.7167 115.14 90.7101 115.909C90.7061 116.255 90.7487 116.601 90.7981 116.943C91.0821 118.917 92.3021 119.965 94.2794 119.96C94.8181 119.959 95.3554 119.984 95.8927 120.003C99.6101 120.127 100.462 119.189 102.081 115.412C102.365 114.751 102.891 113.721 102.638 113.413C102.233 112.919 101.278 112.825 100.534 112.676C99.9287 112.553 99.7514 112.409 100.071 111.801C100.933 110.167 101.319 108.367 101.134 106.565C100.923 104.539 101.719 103.2 103.277 102.079C103.719 101.761 104.061 101.576 104.342 101.539C104.821 101.473 105.129 101.835 105.465 102.705C105.75 103.448 105.814 104.213 105.835 104.981C105.854 105.631 105.842 106.283 105.906 106.927C106.286 110.756 106.519 114.592 105.778 118.412C105.678 118.932 105.666 119.547 104.866 119.465C103.871 119.365 103.505 119.944 103.365 120.812C103.291 121.265 103.141 121.704 103.049 122.155C102.919 122.781 102.666 123.075 102.037 122.621C101.771 122.429 101.461 122.38 101.178 122.589C100.878 122.811 100.911 123.116 101.035 123.42C101.318 124.113 101.201 124.835 101.181 125.545C101.181 125.559 101.179 125.573 101.178 125.587C101.166 126.136 101.247 126.587 101.871 126.735C102.499 126.881 102.819 126.556 103.166 126.06C104.133 124.677 104.503 122.817 106.319 122.089C106.555 121.993 106.711 121.625 106.845 121.355C107.651 119.727 108.145 118.007 108.337 116.196C108.739 112.425 108.154 108.672 108.145 104.908C108.142 103.248 107.561 101.76 106.603 100.412C106.369 100.083 106.071 99.8227 106.402 99.3053C107.489 97.6013 107.49 95.5533 108.062 93.6827C108.165 93.348 107.981 92.9307 107.955 92.5493C107.819 90.456 103.739 87.8293 101.675 87.908C100.041 87.9707 99.9874 87.8973 99.9114 86.2187C99.8367 84.5453 99.2607 83.1333 98.2767 81.7707C97.9914 81.376 97.7181 80.9707 97.4421 80.5667C97.3834 80.4787 97.3207 80.3933 97.2607 80.3053C95.9661 78.38 94.8061 76.3627 93.9794 74.1907C92.7621 70.9987 90.4221 69.0973 87.3967 67.8587C86.6807 67.5667 85.9394 67.3347 85.1887 67.068C85.2927 66.8613 85.3461 66.7613 85.3927 66.6573C86.6461 63.952 88.8114 61.688 89.4927 58.724C90.5461 54.144 91.9554 49.64 92.0781 44.86C92.2167 39.5067 92.1634 34.1693 91.4047 28.868C90.2954 21.1307 88.0354 13.7093 85.0141 6.51467C84.0447 4.20667 83.1261 1.86267 81.3554 2.90578e-06H79.7421C78.7714 0.753336 78.6474 1.40668 79.4487 1.56268C80.0927 1.68534 80.4247 2.024 80.6927 2.44667C80.8101 2.632 80.9167 2.832 81.0287 3.04C81.6714 4.22133 82.1354 5.476 82.6354 6.71867C83.1647 8.03734 83.6634 9.36 84.1421 10.6867C84.4314 11.4867 84.7101 12.2867 84.9781 13.0893C87.4314 20.412 89.0501 27.88 89.5194 35.5427C89.5341 35.772 89.5514 36.0027 89.5634 36.2333C89.7354 39.5427 89.6954 42.888 89.4114 46.2747C88.9714 51.5027 87.3847 56.3707 84.8314 60.8933C84.5181 61.448 84.1954 62.0013 83.8527 62.5467C83.7901 62.6453 83.7167 62.7333 83.6501 62.8293C83.0367 63.7093 82.2554 64.432 81.2021 64.796C80.9621 64.6093 81.0207 64.356 80.9807 64.1387C80.7341 62.7947 80.3034 62.452 78.9447 62.5493C77.8754 62.6253 76.9554 63.072 76.1167 63.716C75.3474 64.3053 74.7447 65.432 73.4994 64.5387C73.4287 64.4867 73.2754 64.54 73.1621 64.5533C71.7007 64.7373 69.5794 66.496 69.2461 67.9C69.1154 68.452 68.9634 68.6787 68.3581 68.608C67.4821 68.508 66.5954 68.524 65.7167 68.68C65.4421 68.7293 65.0781 68.8893 64.9607 68.4307C64.5034 66.6547 63.5527 65.0387 63.3727 63.164C63.1781 61.14 62.8821 59.124 62.5674 57.1147C62.3927 55.996 62.2527 54.876 62.1327 53.7587C61.3967 46.9427 61.6461 40.1293 62.8021 33.352C63.0687 31.7933 63.4141 30.264 63.7954 28.7493C65.2367 23.0213 67.4847 17.6067 70.4287 12.484C71.2194 11.1067 72.0421 9.74401 72.9301 8.40934C73.2821 7.88001 73.6554 7.36534 74.0194 6.84401C74.8527 5.64934 75.6901 4.45867 76.5367 3.27334C76.7927 2.91467 77.0501 2.55867 77.3034 2.19734C77.4594 1.97467 77.8034 1.76401 77.4661 1.41734C77.1781 1.12534 76.9554 1.27734 76.6661 1.45334C74.9007 2.53334 73.5141 3.98667 72.2994 5.64934C66.6034 13.436 63.1607 22.2733 60.6381 31.46C59.0527 37.236 59.2581 43.26 59.3887 49.2173C59.4381 51.42 59.6087 53.6187 59.7234 55.82C59.2567 55.4093 58.9887 54.964 58.7487 54.5027C54.7807 46.8893 50.2021 39.6933 44.4914 33.2427C40.5261 28.7653 36.2781 24.62 31.3501 21.208C29.9821 20.2627 28.5127 19.5427 26.8661 19.2267C26.6034 19.176 26.3261 19.08 26.1421 19.376C25.9407 19.6973 26.2154 19.8893 26.3914 20.0547C26.8794 20.5133 27.3727 20.968 27.8714 21.4147C28.1447 21.66 28.4167 21.9053 28.6967 22.1413C32.4874 25.336 36.0807 28.7293 39.4794 32.3187C41.0701 34 42.6327 35.7107 44.1274 37.4893C45.7661 39.4387 47.2821 41.4613 48.7167 43.532C53.3674 50.2467 57.0714 57.5253 60.5781 64.9253C60.7727 65.3373 60.9447 65.784 61.0034 66.232C61.1167 67.0973 61.3834 67.856 62.0127 68.492C62.4847 68.9693 62.3541 69.4707 61.7421 69.644C60.6394 69.9573 59.6181 70.5427 58.4541 70.6387C58.1487 70.664 57.8834 70.6733 57.6501 70.964C56.4861 72.4093 56.1501 72.4 55.2661 70.8093C53.2367 67.1613 51.2967 63.4627 49.2234 59.8413C44.6981 51.9333 38.4807 45.372 32.3127 38.7773C32.0554 38.504 31.7261 38.272 31.3874 38.1067C29.5034 37.1813 28.4487 37.7693 28.5967 39.816C28.8367 43.1067 28.9607 46.448 29.6554 49.6533C30.6261 54.136 32.0767 58.5093 34.4981 62.484C36.6354 65.988 38.7607 69.5 41.3381 72.7093C43.4034 75.2827 44.9901 78.208 47.2034 80.6707C47.5874 81.0987 47.3821 81.4347 47.0954 81.7813C46.2861 82.7627 45.5941 83.8133 45.0581 84.9733C44.8314 85.4627 44.6501 85.7787 44.4687 85.9493C44.1207 86.2787 43.7741 86.0427 43.1234 85.2613C42.8847 84.9747 42.6554 84.6813 42.4181 84.392C37.7594 78.6893 33.7221 72.5907 30.8234 65.776C27.9834 59.0973 25.7887 52.256 24.4887 45.192C24.3207 44.28 24.1621 43.3667 24.0261 42.4467C23.6901 40.1827 23.4314 37.9 23.2967 35.5867C23.1927 33.796 23.0701 32.004 23.0301 30.2133C23.0141 29.528 23.0154 28.8427 23.0314 28.1573C23.0701 26.6347 23.2087 25.1147 23.5047 23.5987C23.5687 23.2733 23.6261 22.9467 23.7061 22.62C23.7634 22.3867 23.9007 22.0147 23.5461 21.9347C23.1261 21.8387 23.1114 22.2507 23.0247 22.5347C20.9994 29.2173 20.5167 36.0253 21.4781 42.9293C22.5261 50.4413 24.6567 57.6653 27.5301 64.668C31.0247 73.1813 35.5501 81.0467 42.2501 87.496C42.5927 87.8253 42.5421 88.044 42.2434 88.34C41.1661 89.4107 40.5261 90.7813 39.7394 92.048C39.3327 92.7027 39.0261 93.4107 38.9407 94.1853C38.7701 95.7467 39.6821 96.4053 41.1314 95.796C41.4207 95.6747 41.6821 95.3587 42.1234 95.612C41.9247 96.4587 41.7581 97.3173 41.5221 98.1547C41.1247 99.5573 40.6394 100.939 40.7114 102.427C40.7407 103.056 40.5007 103.808 41.1887 104.219C41.9074 104.648 42.3874 103.983 42.9434 103.699C43.0061 103.668 43.0901 103.68 43.1941 103.668C43.2754 103.872 43.3954 104.072 43.4367 104.289C43.4821 104.535 43.5421 104.711 43.6154 104.832C43.8434 105.213 44.1954 105.024 44.6101 104.553Z" fill="#CE1E33"/>
<path d="M156.096 177.493C148.294 179.653 140.691 182.518 132.736 184.146C132.214 184.253 131.71 184.453 131.188 184.558C130.95 184.606 130.61 185.013 130.444 184.494C130.316 184.086 130.639 183.99 130.958 183.905C132.212 183.569 133.46 183.203 134.718 182.878C141.802 181.047 148.556 178.275 155.367 175.662C155.616 175.567 155.862 175.458 156.118 175.382C156.926 175.147 157.29 175.471 157.231 176.273C157.271 177.097 156.735 177.315 156.096 177.493ZM156.294 183.197C156.078 185.065 155.858 186.93 155.664 188.799C155.618 189.25 155.527 189.678 155.082 189.837C152.071 190.911 149.051 191.961 145.923 193.058C145.923 189.837 145.93 186.77 145.918 183.703C145.915 182.927 146.507 182.778 147.034 182.59C149.338 181.77 151.623 180.898 153.796 179.771C154.772 179.266 155.704 178.679 156.907 177.983C156.686 179.861 156.486 181.529 156.294 183.197ZM154.14 200.046C154.008 201.11 153.91 202.181 153.851 203.251C153.816 203.869 153.638 204.161 152.96 204.33C150.78 204.874 148.614 205.494 146.474 206.183C145.676 206.439 145.638 206.166 145.707 205.541C146.04 202.597 145.916 199.639 145.95 196.687C145.959 195.819 146.239 195.425 147.1 195.157C149.755 194.33 152.37 193.382 155.132 192.437C154.79 195.05 154.45 197.546 154.14 200.046ZM143.171 188.994H143.156C143.156 190.302 143.132 191.61 143.167 192.915C143.184 193.583 143.011 193.949 142.291 194.139C138.818 195.059 135.356 196.026 131.902 197.01C131.276 197.187 131.068 197.014 131.046 196.413C130.942 193.687 130.83 190.961 130.718 188.235C130.695 187.683 131.086 187.522 131.502 187.398C135.054 186.333 138.607 185.275 142.158 184.211C142.843 184.005 143.235 184.054 143.188 184.958C143.12 186.301 143.171 187.649 143.171 188.994ZM142.208 207.45C138.283 208.586 134.368 209.763 130.207 210.663C131.079 207.553 130.936 204.481 130.892 201.422C130.875 200.217 131.327 199.603 132.523 199.351C135.702 198.678 138.823 197.766 141.916 196.781C142.912 196.465 143.127 196.749 143.127 197.686C143.13 200.487 142.971 203.298 143.384 206.085C143.526 207.046 142.904 207.249 142.208 207.45ZM129.54 178.217C129.328 176.471 129.1 174.729 128.855 172.989C128.719 172.027 128.986 171.295 129.803 170.711C130.422 170.27 130.946 169.697 131.564 169.134C132.948 171.634 133.587 174.335 134.178 177.051C134.283 177.535 134.111 177.833 133.578 177.961C132.506 178.219 131.448 178.546 130.382 178.834C129.856 178.977 129.607 178.759 129.54 178.217ZM127.82 211.401C126.062 211.911 124.316 212.47 122.56 212.991C121.959 213.17 121.534 213.233 121.543 212.279C121.574 209.17 121.496 206.059 121.44 202.95C121.43 202.367 121.47 201.894 122.17 201.751C124.07 201.363 125.966 200.957 127.955 200.539C127.955 202.565 127.968 204.518 127.951 206.471C127.938 207.819 128.024 209.157 128.328 210.469C128.447 210.979 128.355 211.245 127.82 211.401ZM120.747 196.057C120.663 195.51 120.719 194.763 120.016 194.631C119.238 194.486 119.054 195.278 118.784 195.782C118.368 196.561 118.53 197.417 118.603 198.266C118.866 201.242 119.186 200.487 116.627 201.657C116.12 201.887 115.579 202.046 114.759 202.345C115.982 202.345 116.874 202.425 117.744 202.322C118.64 202.215 118.93 202.569 118.928 203.387C118.924 205.733 118.936 208.077 118.946 210.422C118.947 210.959 118.951 211.498 118.974 212.035C119.047 213.763 119.051 213.761 117.283 214.191C116.548 214.371 115.819 214.563 115.23 214.713C114.168 209.47 112.794 204.391 110.92 199.469C110.183 197.53 110.171 195.575 110.06 193.597C110.03 193.059 110.386 192.766 110.918 192.703C116.231 192.082 121.328 190.613 126.347 188.818C126.883 188.626 127.459 188.546 128.183 188.374C127.939 190.717 127.962 192.997 127.962 195.277C127.963 198.03 127.962 198.027 125.294 198.747C123.972 199.105 122.655 199.474 121.252 199.862C121.083 198.555 120.939 197.302 120.747 196.057ZM110.842 188.958C115.072 187.906 119.298 186.833 123.526 185.77C124.564 185.51 125.606 185.266 126.647 185.018C126.944 184.947 127.302 184.598 127.486 185.161C127.664 185.702 127.258 185.823 126.89 185.931C123.883 186.815 120.879 187.711 117.862 188.561C115.538 189.215 113.17 189.671 110.899 189.977C110.488 189.969 110.086 190.162 110.028 189.706C109.958 189.145 110.403 189.067 110.842 188.958ZM103.548 209.894C103.382 210.361 103.184 210.819 102.966 211.265C97.5522 222.298 90.4962 232.119 81.4455 240.467C80.8535 241.014 80.2735 241.574 80.1642 242.45C79.9122 244.486 81.4335 246.033 83.4615 245.563C88.0095 244.509 92.5269 243.325 97.0549 242.19C99.0869 241.682 101.116 241.167 103.432 240.583C102.243 243.481 101.346 246.155 101.096 249.018C100.886 251.433 100.696 253.842 100.84 256.267C100.86 256.613 100.888 256.958 100.903 257.303C101.018 259.971 100.464 260.462 97.7709 260.251C92.1375 259.813 86.6309 258.563 81.0695 257.666C78.1522 257.197 75.2309 256.762 72.2749 256.614C70.0682 256.505 69.3842 255.543 70.0855 253.458C71.7735 248.435 73.8069 243.571 76.6589 239.079C76.8935 238.71 77.5469 238.273 77.0615 237.807C76.5482 237.317 75.8095 237.269 75.1309 237.653C74.6855 237.906 74.3775 238.299 74.0815 238.703C72.4535 240.922 71.2842 243.335 70.7082 246.055C69.4749 251.901 66.0482 256.305 61.4416 259.91C57.1376 263.277 52.2949 265.79 47.6642 268.639C45.7189 269.835 43.8015 271.077 41.7309 272.387C41.7909 268.991 41.2575 265.854 40.1295 262.809C38.8935 259.473 36.9789 256.519 35.0855 253.546C33.8949 251.678 32.5962 249.877 31.4722 247.731C33.9269 248.203 36.2135 248.634 38.4962 249.083C43.6815 250.107 48.8616 251.166 54.0522 252.159C57.8562 252.887 60.4442 251.591 62.1909 248.129C64.4909 243.567 65.6175 238.641 66.6082 233.675C67.8175 227.606 67.8509 221.458 67.8082 215.306C67.8002 214.225 67.8575 213.15 68.0562 212.093C68.4042 210.241 70.0269 209.358 71.8535 209.95C72.8695 210.278 73.5135 210.993 74.0695 211.853C75.6375 214.279 77.3402 216.59 79.6522 218.389C83.6375 221.49 88.2989 221.545 92.2229 218.398C95.3349 215.903 98.0002 213.033 99.5295 209.237C100.292 207.343 101.33 206.901 102.663 207.669C103.535 208.171 103.902 208.903 103.548 209.894ZM119.312 234.671C120.384 234.599 121.447 234.493 122.526 234.645C123.762 234.818 124.551 235.529 124.656 236.702C124.786 238.127 125.61 238.863 126.718 239.518C130.632 241.834 132.956 245.185 133.38 249.793C133.63 252.497 132.243 254.437 129.591 254.926C128.1 255.201 127.275 254.757 126.736 253.298C125.982 251.25 125.256 249.193 124.114 247.318C121.952 243.77 119.158 241.089 114.548 240.481C116.299 242.435 117.918 244.225 119.516 246.031C121.02 247.73 122.396 249.522 123.416 251.563C124.028 252.79 124.364 254.077 124.212 255.451C124.035 257.062 123.212 258.273 121.752 258.962C116.736 261.322 111.572 261.694 106.347 259.806C103.48 258.77 102.512 256.346 102.396 253.507C102 243.913 109.732 235.319 119.312 234.671ZM36.3015 273.783C32.6082 276.071 28.5709 277.473 24.2682 278.025C21.1242 278.427 18.6602 276.447 18.1242 273.295C17.9536 272.301 17.9442 271.306 17.9335 270.305C17.9082 265.989 19.2856 262.106 21.5696 258.498C21.9362 257.918 22.2602 257.306 22.5549 256.686C22.9482 255.855 22.7055 255.194 21.9162 254.737C21.1269 254.281 20.5282 254.583 20.0189 255.227C17.8602 257.958 16.5282 261.067 15.8762 264.469C15.4189 266.862 15.3589 269.271 15.6229 271.701C15.8855 274.119 14.5602 275.299 12.3922 274.311C8.86555 272.703 5.73489 270.493 3.86555 266.911C2.74022 264.754 2.81888 262.553 3.76954 260.362C5.26554 256.914 7.92688 254.407 10.6509 251.969C12.8135 250.034 15.2069 248.443 18.0336 247.651C22.3149 246.453 26.0349 247.717 29.1855 250.606C33.9749 254.997 37.3122 260.383 39.1895 266.595C40.1322 269.715 39.0842 272.062 36.3015 273.783ZM74.7442 170.735C75.0909 169.275 75.9562 168.025 76.6629 166.718C76.9029 166.277 77.4455 166.266 79.1722 166.503C78.7309 167.362 78.3015 168.198 77.8549 169.066C78.3655 169.162 78.8175 169.203 79.2415 169.334C80.5775 169.747 81.1575 170.597 81.1709 172.086C81.1842 173.695 80.6535 174.514 79.2669 174.965C77.9229 175.402 76.6882 175.165 75.6309 174.227C74.5602 173.278 74.4415 172.009 74.7442 170.735ZM67.7242 168.491C67.6629 168.285 67.7002 168.022 67.7682 167.809C68.0882 166.806 68.9002 166.367 69.8442 166.238C71.1362 166.058 72.4095 166.186 73.2989 167.307C73.9202 168.093 74.0269 169.011 73.4722 169.879C73.2082 170.291 73.1495 170.461 73.5402 170.873C74.8189 172.225 74.3109 174.239 72.5749 174.895C71.5309 175.291 70.4642 175.265 69.4242 174.867C68.2522 174.419 67.7042 173.574 67.7055 172.006C68.5095 171.033 68.1069 169.767 67.7242 168.491ZM94.9229 203.913C95.6589 203.731 96.3775 203.873 97.0615 204.137C98.9109 204.853 99.4389 206.419 98.4055 208.11C95.6189 212.674 92.0922 216.391 86.8575 218.131C86.3869 218.289 85.9042 218.419 85.4175 218.51C85.0429 218.578 84.6535 218.565 84.4655 218.575C80.5775 218.555 77.0095 215.534 76.3909 211.911C76.2015 210.799 76.4909 209.846 77.5815 209.45C83.2909 207.383 89.0189 205.373 94.9229 203.913ZM90.2362 167.706C90.3082 167.254 90.4482 166.749 91.0722 166.802C91.7069 166.855 91.5455 167.405 91.5842 167.787C91.6269 168.206 91.5949 168.631 91.5949 169.21C91.4509 171.041 91.9522 172.851 93.0469 174.509C93.1815 174.714 93.4455 174.927 93.2122 175.221C92.9735 175.519 92.6535 175.449 92.3682 175.333C91.7749 175.094 91.3615 174.643 91.0602 174.09C89.9602 172.07 89.8895 169.91 90.2362 167.706ZM93.0015 165.246C94.4709 165.217 95.9429 165.107 97.4295 165.41C96.0135 166.273 94.5095 166.639 92.8775 166.207C92.5495 166.119 92.1389 166.003 92.2295 165.563C92.3042 165.195 92.7055 165.251 93.0015 165.246ZM99.1135 171.373C99.0829 169.843 99.2495 168.298 98.6869 166.815C98.5949 166.571 98.5535 166.29 98.8362 166.091C99.1802 165.847 99.4255 166.099 99.6535 166.271C100.002 166.531 100.196 166.901 100.267 167.339C100.66 169.746 100.563 172.17 100.436 174.585C100.37 175.878 99.8082 176.313 98.4882 176.341C97.5295 176.362 96.5682 176.329 95.6109 176.287C95.2122 176.27 94.7895 176.114 94.7749 175.658C94.7575 175.109 95.2469 175.154 95.6215 175.145C96.4655 175.122 97.3095 175.115 98.1549 175.109C98.8015 175.105 99.1495 174.853 99.1215 174.139C99.0855 173.218 99.1122 172.295 99.1135 171.373ZM61.0669 176.177C60.6002 178.061 59.5909 179.558 57.9976 180.671C58.5389 178.494 59.2562 176.403 59.4762 174.194C59.8616 170.334 59.9575 166.47 59.5789 162.603C59.5335 162.133 59.3842 161.649 59.9309 161.409C60.4482 161.181 60.6722 161.679 60.9535 161.953C61.4402 162.425 61.7309 163.051 61.7282 163.699C61.7069 167.869 62.0869 172.059 61.0669 176.177ZM159.775 177.273C159.548 172.871 157.503 171.239 153.324 172.318C148.251 173.629 143.292 175.329 138.282 176.849C137.302 177.146 136.85 176.963 136.687 175.937C136.283 173.382 135.474 170.951 134.203 168.697C133.774 167.933 133.906 167.493 134.598 166.985C135.992 165.965 137.323 164.859 138.674 163.782C139.859 162.837 141.175 162.095 142.65 161.801C145.824 161.165 147.875 159.231 149.232 156.411C150.331 154.127 149.226 151.642 146.784 150.926C145.39 150.517 143.967 150.603 142.559 150.815C141.42 150.986 140.323 151.335 139.342 151.966C139.091 152.129 138.71 152.258 138.723 152.593C138.738 152.961 139.15 152.929 139.418 153.041C139.575 153.106 139.734 153.157 139.892 153.206C140.538 153.406 141.199 153.483 141.888 153.473C143.002 153.455 144.124 153.426 145.227 153.542C146.73 153.702 147.059 154.458 146.291 155.741C145.302 157.394 143.956 158.59 142.012 158.951C140.116 159.303 138.479 160.165 136.988 161.353C136.292 161.907 135.588 162.461 134.858 163.037C134.742 163.127 134.631 163.214 134.514 163.306C134.503 163.282 134.491 163.262 134.48 163.238C134.264 162.789 134.035 162.438 133.947 162.058C133.394 159.683 132.291 157.619 130.588 155.87C130.263 155.534 130.096 155.103 130.124 154.61C130.287 151.905 131.875 150.222 134.616 149.818C135.351 149.71 135.706 149.973 135.771 150.702C135.864 151.763 135.692 152.771 135.179 153.706C134.87 154.27 134.544 154.83 134.223 155.39C134.219 155.394 134.216 155.399 134.214 155.405C133.986 155.803 133.762 156.202 133.534 156.603C134.86 157.115 135.476 157.005 136.355 156.074C137.071 155.315 137.54 154.491 137.823 153.623C138.24 152.345 138.246 150.967 137.947 149.534C137.604 147.891 136.668 147.203 134.979 147.261C132.692 147.339 130.735 148.245 129.151 149.883C127.966 151.109 127.388 152.57 127.85 154.301C127.955 154.691 128.007 154.991 127.459 154.993C126.574 154.995 125.89 155.558 125.104 155.834C123.916 156.253 123.799 157.006 124.088 158.083C124.594 159.973 124.926 161.902 125.182 163.841C125.791 168.443 126.422 173.045 126.967 177.657C127.099 178.77 127.567 179.909 127.071 181.279C126.815 180.294 126.486 179.93 125.554 180.235C120.564 181.869 115.274 182.27 110.278 183.906C109.826 184.053 109.506 183.981 109.427 183.355C109.028 180.19 108.583 177.031 108.124 173.653C109.467 174.598 110.62 175.418 111.782 176.227C113.259 177.255 114.856 177.889 116.694 177.941C119.715 178.026 122.152 176.645 124.484 174.973C125.264 174.413 125.394 173.563 125.152 172.69C124.771 171.314 124.692 169.895 124.471 168.497C123.91 164.953 123.402 161.398 122.492 157.786C121.935 158.143 121.418 158.401 120.992 158.763C119.614 159.938 118.071 160.141 116.352 159.743C114.966 159.425 113.754 158.803 112.746 157.827C109.056 154.261 104.958 151.225 100.63 148.497C96.7842 146.074 92.7295 144.137 88.1495 143.551C87.7495 143.499 87.4282 143.317 87.1429 143.046C86.0602 142.015 86.1682 140.491 87.4375 139.629C88.8962 138.638 89.9349 137.253 91.0615 135.945C91.3309 135.631 91.4655 135.274 91.2269 134.891C91.1295 134.737 90.9615 134.641 90.7362 134.75C90.1522 135.031 89.5189 135.219 88.9202 135.47C88.1949 135.774 87.5189 136.17 87.0522 136.951C86.7775 137.41 86.2149 137.761 85.7082 138.002C84.5815 138.539 83.3642 138.909 83.1495 140.425C83.1135 140.679 82.7562 140.882 82.5682 141.123C82.3082 141.457 82.0295 141.803 82.0669 142.254C82.1282 142.997 81.7242 143.347 81.1069 143.637C77.7895 145.19 74.3482 145.138 70.8575 144.473C67.9682 143.922 67.8255 143.891 68.3162 141.014C68.9069 137.543 67.6535 135.13 64.7202 133.387C64.2429 133.103 63.7695 132.814 63.2935 132.527C61.6335 131.531 59.9815 130.521 58.3749 129.442C58.1282 129.277 57.8949 129.102 57.6589 128.929C55.2349 127.141 53.3642 124.89 52.5175 121.865C52.4695 121.691 52.3309 121.545 52.2295 121.377C50.9495 122.407 51.6362 123.705 51.7815 124.965C51.3135 124.737 51.2509 124.386 51.1229 124.069C50.6762 122.97 50.2282 121.871 49.7589 120.782C49.1349 119.333 48.0829 118.867 46.5962 119.383C46.3802 119.458 46.1669 119.555 45.9482 119.659C45.7589 119.75 45.5669 119.845 45.3535 119.941C45.3669 119.681 45.3629 119.427 45.3575 119.179C45.3415 118.337 45.2989 117.555 45.7495 116.79C46.3509 115.763 45.8309 114.934 44.6335 114.993C44.0189 115.023 43.9322 114.865 43.9389 114.326C43.9549 113.121 44.1375 111.979 44.6589 110.869C45.0949 109.942 44.7989 109.541 43.7802 109.387C43.5429 109.351 43.2562 109.483 43.0202 109.17C43.4949 108.423 43.9882 107.698 44.4242 106.939C44.6149 106.606 44.6895 106.207 44.2815 105.913C43.9842 105.698 43.6562 105.718 43.4469 105.966C43.4322 105.983 43.4162 106.001 43.4015 106.019C42.2562 107.367 40.9442 108.611 40.5309 110.442C40.4055 110.994 40.3882 111.493 40.8589 111.918C41.3722 112.382 41.7762 111.921 42.2495 111.77C42.0695 113.839 41.8869 115.787 41.7362 117.738C41.6775 118.498 41.8882 119.159 42.7936 119.213C43.4056 119.249 43.3109 119.633 43.3082 120.007C43.3029 121.146 43.6789 122.19 44.1122 123.217C44.3255 123.723 44.6749 124.029 45.2722 123.937C45.8216 123.851 46.0442 123.514 46.0869 122.987C46.1055 122.763 46.1802 122.537 46.2682 122.327C46.4869 121.813 46.8269 121.331 47.4109 121.326C47.9815 121.321 48.0175 121.925 48.1949 122.331C48.9869 124.15 49.5775 125.933 51.2335 127.413C53.5495 129.486 55.9442 131.311 58.6842 132.73C60.4522 133.646 62.2616 134.501 63.9402 135.561C66.7336 137.323 66.5202 141.155 63.5669 142.527C60.0122 144.179 56.6669 146.181 53.3389 148.231C51.7295 149.225 50.4802 150.49 49.4962 152.107C47.1776 155.923 45.9442 160.134 44.8269 164.402C42.7109 172.479 40.9042 180.593 41.5122 189.037C41.6989 191.642 41.7922 194.257 42.9295 196.679C43.5389 197.978 44.1242 198.291 45.4749 197.981C47.7709 197.453 50.2482 197.559 52.3029 195.99C51.7735 197.429 51.8389 198.851 51.7895 200.267C51.7122 202.493 52.2375 204.718 51.7989 206.937C51.5655 208.113 51.9762 209.043 52.7629 209.861C53.8002 210.938 55.1535 211.371 56.5629 211.603C60.5615 212.262 62.9482 214.646 64.0642 218.455C65.0042 221.662 65.2562 224.983 65.1616 228.267C64.9976 233.945 63.5095 239.395 61.3002 244.602C60.0415 247.571 55.9989 249.515 52.7415 248.973C47.0375 248.022 41.3282 247.097 35.6749 245.855C32.1615 245.083 28.6749 244.027 25.0535 243.985C14.8042 243.862 7.31754 248.935 2.00821 257.218C-1.67845 262.967 -0.186456 269.713 5.64021 273.657C10.0229 276.623 14.6656 278.974 19.7362 280.486C21.6349 281.051 23.5469 281.298 25.5202 280.919C29.0322 280.247 32.3629 279.023 35.6722 277.706C44.4442 274.211 52.4815 269.422 60.2082 264.038C66.0042 260.001 72.5109 258.647 79.3815 260.187C88.1402 262.15 97.0389 262.87 105.926 263.727C115.935 264.693 124.974 261.497 133.603 256.841C135.696 255.711 136.494 253.785 136.319 251.413C135.936 246.193 134.2 241.397 131.788 236.817C130.394 234.17 128.091 232.829 125.176 232.395C119.051 231.485 113.187 232.439 107.516 234.807C101.766 237.21 95.9962 239.558 90.0575 241.467C88.4215 241.994 86.8415 242.065 85.2829 241.083C85.5149 240.821 85.7082 240.583 85.9202 240.365C91.7735 234.333 97.0269 227.858 100.902 220.337C101.904 218.387 103.235 216.611 104.816 215.091C107.14 212.857 108.568 210.182 109.22 207.055C109.324 206.559 109.458 206.07 109.576 205.577C110.067 206.537 110.344 207.518 110.643 208.493C111.335 210.754 111.756 213.15 113.68 214.815C114.182 215.249 113.647 215.351 113.468 215.579C113.266 215.839 112.623 216.005 113.098 216.45C113.96 217.262 114.844 218.067 116.168 218.07C117.186 218.073 118.136 217.806 119.088 217.511C125.806 215.427 132.466 213.133 139.255 211.315C144.46 209.922 149.76 208.891 154.827 206.99C155.503 206.737 155.904 206.419 156.003 205.65C156.206 204.054 156.515 202.471 156.752 200.878C157.446 196.211 158.115 191.541 158.815 186.875C159.292 183.69 159.943 180.534 159.775 177.273Z" fill="#CE1E33"/>
<path d="M79.63 18.2717C78.6087 16.881 77.754 16.6957 76.6487 18.0357C75.814 19.0464 75.1847 20.1864 74.634 21.3757C73.062 24.765 72.1327 28.3824 71.2567 31.9717C69.1927 40.425 68.234 49.045 68.182 57.7544C68.182 59.561 68.1794 61.369 68.182 63.177C68.1834 63.8224 68.086 64.4824 68.8234 64.8837C69.5327 65.2704 69.99 64.793 70.4874 64.4797C71.7074 63.709 72.962 63.069 74.466 63.2597C74.9994 63.3277 75.3127 63.0197 75.6594 62.7024C76.6367 61.8144 77.7847 61.3184 79.1167 61.3944C80.382 61.4677 81.2834 60.8717 82.1447 60.0264C83.902 58.3024 84.7834 56.1864 85.042 53.797C85.9914 45.0197 85.8727 36.3184 83.102 27.8144C82.054 24.597 81.73 21.1344 79.63 18.2717Z" fill="#CE1E33"/>
<path d="M39.8749 221.94C39.9923 221.996 40.0629 222.277 40.0563 222.449C40.0069 223.784 40.7149 224.963 40.8243 226.267C40.8656 226.755 41.2016 227.26 41.7363 227.037C42.6083 226.672 42.6976 227.261 42.9176 227.788C44.1136 230.653 46.0829 232.859 48.7669 234.372C51.4536 235.887 54.3043 235.725 57.1483 234.856C57.5483 234.732 57.7896 234.764 58.0709 235.007C58.4789 235.359 58.7976 235.296 59.2696 234.976C60.7176 233.996 60.6056 232.028 62.0136 230.919C62.5803 230.472 62.7763 229.008 62.6243 227.873C62.4523 226.584 62.4563 225.269 62.4136 223.965C62.3403 221.719 61.8483 219.561 61.0443 217.476C60.4816 216.012 59.4789 214.893 57.9643 214.425C56.8069 214.067 55.7336 213.651 54.6723 213.017C53.0349 212.041 51.7229 210.983 51.5109 208.956C51.4496 208.369 51.1309 207.873 50.4603 207.999C48.9256 208.287 47.2403 208.343 45.9109 209.049C43.2443 210.467 40.7323 212.207 38.9843 214.799C38.6976 215.223 38.4589 215.669 38.7176 216.188C38.9963 216.749 39.5109 216.623 40.0376 216.505C39.7643 217.493 39.3296 218.339 39.1456 219.277C38.9429 220.312 38.5696 221.328 39.8749 221.94Z" fill="#CE1E33"/>
<path d="M76.3703 91.8187C76.413 91.268 76.145 90.8987 75.6757 90.5974C73.8543 89.432 73.861 89.4214 74.8117 87.488C74.913 87.2827 74.9957 87.0627 75.1277 86.8774C75.5423 86.3 75.3023 85.8814 74.833 85.5C73.6597 84.5454 71.8743 85.0307 71.2143 86.5467C70.6597 87.82 70.2943 89.152 70.4437 90.5707C70.2943 92.064 70.705 93.4654 71.1917 94.8427C71.5863 95.96 72.4463 96.6067 73.6197 96.6427C74.729 96.6774 75.325 95.9027 75.713 94.9574C76.125 93.9534 76.285 92.892 76.3703 91.8187Z" fill="#CE1E33"/>
<path d="M99.2935 126.297C98.7842 126.094 98.2922 126.188 97.9935 126.702C97.8029 127.032 97.6069 127.382 97.5309 127.748C97.3815 128.464 97.1282 128.873 96.2669 128.801C95.6495 128.749 95.2162 129.28 94.9775 129.81C94.9335 129.906 94.8789 129.992 94.8322 130.086C94.2895 131.182 93.5482 132.098 92.5269 132.792C92.2962 132.948 92.0655 133.113 92.1842 133.434C92.2922 133.72 92.5695 133.781 92.8389 133.825C93.7535 133.972 94.2269 133.324 94.7442 132.758C95.2269 132.23 95.5709 131.39 96.5255 132.192C96.7855 132.409 97.1869 132.106 97.4535 131.884C98.7122 130.828 99.4375 129.458 99.8882 127.826C99.9322 127.67 99.9762 127.514 100.015 127.352C100.078 126.898 99.7989 126.497 99.2935 126.297Z" fill="#CE1E33"/>
<path d="M71.2062 79.5987C71.2649 78.94 70.8982 78.6013 70.3022 78.4747C70.0409 78.4187 69.7689 78.4187 69.5276 78.396C69.2329 78.4213 68.9609 78.4267 68.6969 78.468C67.0182 78.7347 65.4769 80.0013 65.3836 81.2173C65.3436 81.7413 65.2422 82.348 65.9036 82.5973C66.4756 82.812 66.9302 82.604 67.3089 82.1187C68.0502 81.168 69.0022 80.5827 70.2436 80.5373C70.8315 80.516 71.1529 80.18 71.2062 79.5987Z" fill="#CE1E33"/>
<path d="M96.6093 112.39C98.7053 112.305 98.712 112.337 99.0453 110.288C99.1066 109.91 99.1026 109.521 99.1106 109.4C99.1226 105.765 97.2173 103.386 93.976 102.756C93.2613 102.617 92.5266 102.582 91.808 102.458C89.9133 102.132 88.456 101.21 87.6893 99.3636C87.0626 97.8569 86.7413 97.7183 85.208 98.3236C84.784 98.4916 84.368 98.7063 83.9933 98.9663C80.1253 101.654 77.6093 105.308 76.2693 109.806C76.0866 110.418 76.1493 110.802 76.8093 111.072C77.8986 111.516 78.74 112.294 79.4533 113.23C80.156 114.152 81.1333 114.654 82.2493 114.921C84.2 115.386 86.0613 114.962 87.8986 114.361C90.7426 113.43 93.5893 112.514 96.6093 112.39Z" fill="white"/>
<path d="M80.5944 124.533C80.001 124.674 79.6157 124.601 79.253 124.028C78.513 122.862 77.433 122.698 76.3064 123.472C75.141 124.272 74.889 125.604 75.6757 127.174C76.597 129.016 78.2704 129.793 80.161 130.24C82.3544 130.758 84.365 129.196 84.3744 126.952C84.4357 125.992 83.9557 125.329 83.1584 124.905C82.3597 124.481 81.485 124.321 80.5944 124.533Z" fill="white"/>
<path d="M99.3859 92.8024C99.7459 93.8264 100.494 94.1771 101.563 93.9264C101.923 93.8411 102.321 93.9131 102.769 93.9131C103.685 94.1317 104.554 94.0317 104.989 92.9664C105.291 92.2211 105.162 91.4637 104.525 90.9971C103.403 90.1784 102.118 89.8304 100.745 90.2931C99.8126 90.6077 99.0859 91.9491 99.3859 92.8024Z" fill="#FEFEFE"/>
<path d="M96.0298 115.358C95.9458 114.9 95.7778 114.582 95.2138 114.656C94.5352 114.746 93.6952 114.306 93.2458 115.132C92.6512 116.22 93.7898 117.914 95.0485 117.882C96.8338 117.692 96.5272 117.97 96.2352 116.367C96.1738 116.03 96.0912 115.695 96.0298 115.358Z" fill="#FAFAF9"/>
<path d="M98.9948 114.508C98.6881 114.56 98.3534 114.725 98.3948 115.091C98.5028 116.067 98.3094 117.025 98.2721 118.021C99.0641 117.293 99.2828 116.265 99.8014 115.415C99.9308 115.203 100.161 114.952 99.9534 114.68C99.7028 114.351 99.3228 114.452 98.9948 114.508Z" fill="#F9F9F8"/>
<path d="M102.663 207.668C101.329 206.9 100.293 207.343 99.5293 209.236C97.9999 213.032 95.3346 215.903 92.2226 218.398C88.2986 221.544 83.6373 221.49 79.6519 218.39C77.3399 216.59 75.6373 214.279 74.0693 211.852C73.5133 210.994 72.8693 210.279 71.8533 209.95C70.0266 209.359 68.4039 210.24 68.0559 212.092C67.8573 213.15 67.7999 214.224 67.8079 215.306C67.8519 221.458 67.8173 227.606 66.6079 233.675C65.6173 238.64 64.4919 243.567 62.1906 248.128C60.4439 251.591 57.8573 252.887 54.0519 252.159C48.8613 251.167 43.6826 250.107 38.4959 249.084C36.2133 248.634 33.9266 248.203 31.4719 247.731C32.5973 249.876 33.8946 251.678 35.0853 253.546C36.9786 256.519 38.8933 259.472 40.1306 262.808C41.2573 265.854 41.7906 268.991 41.7306 272.388C43.8013 271.078 45.7186 269.835 47.6639 268.639C52.2959 265.79 57.1373 263.278 61.4413 259.91C66.0493 256.306 69.4746 251.9 70.7093 246.056C71.2839 243.335 72.4533 240.922 74.0813 238.703C74.3786 238.3 74.6866 237.906 75.1319 237.652C75.8093 237.268 76.5493 237.316 77.0613 237.807C77.5479 238.272 76.8933 238.71 76.6586 239.079C73.8066 243.571 71.7733 248.435 70.0853 253.458C69.3839 255.543 70.0693 256.504 72.2746 256.614C75.2306 256.762 78.1519 257.196 81.0693 257.667C86.6306 258.563 92.1373 259.812 97.7706 260.252C100.464 260.462 101.017 259.972 100.904 257.303C100.888 256.958 100.86 256.612 100.84 256.267C100.696 253.842 100.885 251.432 101.096 249.018C101.345 246.155 102.244 243.48 103.432 240.584C101.116 241.168 99.0866 241.682 97.0546 242.19C92.5266 243.324 88.0093 244.508 83.4626 245.563C81.4333 246.032 79.9119 244.486 80.1639 242.45C80.2733 241.574 80.8533 241.014 81.4453 240.467C90.4959 232.119 97.5519 222.298 102.965 211.264C103.184 210.819 103.381 210.36 103.548 209.894C103.903 208.903 103.535 208.171 102.663 207.668Z" fill="white"/>
<path d="M29.1861 250.606C26.0341 247.717 22.3141 246.452 18.0341 247.652C15.2075 248.442 12.8128 250.034 10.6515 251.969C7.92746 254.406 5.26612 256.913 3.77013 260.361C2.81946 262.552 2.74079 264.753 3.86613 266.912C5.73413 270.493 8.86479 272.702 12.3928 274.31C14.5595 275.3 15.8848 274.118 15.6235 271.7C15.3581 269.272 15.4195 266.861 15.8768 264.469C16.5275 261.066 17.8595 257.958 20.0195 255.226C20.5288 254.584 21.1275 254.281 21.9155 254.737C22.7048 255.193 22.9475 255.856 22.5541 256.685C22.2608 257.306 21.9368 257.917 21.5688 258.497C19.2861 262.106 17.9088 265.988 17.9341 270.305C17.9448 271.305 17.9541 272.301 18.1235 273.294C18.6595 276.448 21.1248 278.428 24.2688 278.024C28.5715 277.473 32.6075 276.07 36.3021 273.784C39.0835 272.061 40.1328 269.716 39.1888 266.596C37.3115 260.384 33.9741 254.997 29.1861 250.606Z" fill="white"/>
<path d="M106.347 259.806C111.572 261.694 116.736 261.322 121.752 258.961C123.212 258.273 124.035 257.062 124.212 255.452C124.364 254.077 124.028 252.789 123.416 251.564C122.396 249.522 121.02 247.73 119.516 246.032C117.918 244.225 116.299 242.434 114.548 240.48C119.158 241.088 121.952 243.77 124.114 247.317C125.256 249.193 125.982 251.25 126.736 253.297C127.275 254.757 128.1 255.2 129.591 254.926C132.243 254.437 133.63 252.497 133.38 249.793C132.956 245.184 130.632 241.834 126.718 239.518C125.61 238.864 124.786 238.128 124.656 236.702C124.551 235.529 123.762 234.818 122.526 234.644C121.447 234.492 120.384 234.6 119.312 234.672C109.732 235.318 102 243.913 102.396 253.506C102.514 256.345 103.48 258.77 106.347 259.806Z" fill="white"/>
<path d="M127.962 195.277C127.962 192.997 127.939 190.717 128.183 188.374C127.459 188.545 126.882 188.626 126.346 188.818C121.327 190.612 116.23 192.082 110.918 192.702C110.385 192.765 110.029 193.058 110.059 193.596C110.171 195.576 110.183 197.529 110.921 199.469C112.794 204.39 114.167 209.47 115.229 214.713C115.819 214.562 116.549 214.37 117.282 214.192C119.05 213.761 119.047 213.764 118.974 212.036C118.951 211.498 118.947 210.96 118.945 210.421C118.935 208.077 118.925 205.732 118.929 203.388C118.93 202.568 118.641 202.216 117.745 202.321C116.874 202.425 115.982 202.344 114.758 202.344C115.579 202.045 116.121 201.888 116.627 201.656C119.185 200.488 118.865 201.241 118.603 198.265C118.529 197.416 118.369 196.561 118.785 195.781C119.054 195.277 119.238 194.486 120.017 194.632C120.719 194.764 120.663 195.51 120.747 196.056C120.939 197.302 121.082 198.554 121.253 199.861C122.655 199.474 123.973 199.105 125.294 198.748C127.962 198.028 127.962 198.03 127.962 195.277Z" fill="white"/>
<path d="M76.3911 211.911C77.0084 215.534 80.5778 218.555 84.4658 218.575C84.6538 218.565 85.0431 218.578 85.4178 218.51C85.9044 218.419 86.3871 218.289 86.8578 218.133C92.0911 216.391 95.6178 212.674 98.4058 208.11C99.4391 206.419 98.9111 204.853 97.0618 204.137C96.3778 203.873 95.6591 203.731 94.9218 203.913C89.0191 205.373 83.2898 207.383 77.5818 209.45C76.4911 209.846 76.2004 210.801 76.3911 211.911Z" fill="white"/>
<path d="M143.128 197.686C143.128 196.749 142.912 196.465 141.917 196.781C138.822 197.766 135.702 198.678 132.524 199.351C131.328 199.603 130.876 200.217 130.893 201.422C130.936 204.481 131.08 207.553 130.208 210.663C134.369 209.763 138.284 208.586 142.209 207.45C142.905 207.249 143.526 207.046 143.384 206.085C142.972 203.298 143.129 200.487 143.128 197.686Z" fill="white"/>
<path d="M142.157 184.211C138.607 185.276 135.053 186.333 131.501 187.397C131.085 187.521 130.695 187.683 130.717 188.235C130.829 190.96 130.941 193.687 131.045 196.413C131.068 197.013 131.276 197.188 131.901 197.011C135.356 196.025 138.817 195.059 142.291 194.14C143.011 193.949 143.184 193.584 143.167 192.916C143.132 191.609 143.157 190.301 143.157 188.995H143.171C143.171 187.649 143.12 186.3 143.188 184.959C143.235 184.055 142.843 184.005 142.157 184.211Z" fill="white"/>
<path d="M147.033 182.59C146.506 182.778 145.914 182.927 145.918 183.702C145.93 186.77 145.922 189.837 145.922 193.058C149.052 191.961 152.072 190.911 155.082 189.837C155.528 189.678 155.617 189.25 155.664 188.799C155.858 186.93 156.077 185.063 156.293 183.197C156.486 181.529 156.686 179.861 156.908 177.983C155.704 178.678 154.772 179.266 153.797 179.771C151.622 180.898 149.338 181.769 147.033 182.59Z" fill="white"/>
<path d="M145.95 196.687C145.916 199.639 146.04 202.597 145.707 205.541C145.638 206.166 145.675 206.439 146.474 206.183C148.614 205.494 150.78 204.874 152.96 204.33C153.638 204.161 153.816 203.869 153.851 203.251C153.91 202.181 154.007 201.11 154.14 200.046C154.45 197.546 154.79 195.05 155.132 192.437C152.37 193.382 149.755 194.33 147.1 195.157C146.239 195.425 145.959 195.819 145.95 196.687Z" fill="white"/>
<path d="M127.95 206.472C127.968 204.518 127.954 202.565 127.954 200.538C125.966 200.957 124.069 201.364 122.17 201.75C121.469 201.893 121.429 202.368 121.44 202.95C121.496 206.06 121.574 209.169 121.542 212.278C121.533 213.232 121.958 213.17 122.56 212.992C124.316 212.47 126.061 211.912 127.821 211.401C128.356 211.245 128.446 210.98 128.328 210.469C128.025 209.157 127.938 207.82 127.95 206.472Z" fill="white"/>
<path d="M70.677 167.922C71.2517 167.908 71.5944 168.211 71.6877 168.736C71.597 169.346 71.233 169.616 70.7277 169.58C70.1944 169.542 69.7837 169.276 69.817 168.632C69.845 168.076 70.2304 167.932 70.677 167.922ZM70.9557 173.338C70.3304 173.327 69.8664 173.068 69.8224 172.35C69.7824 171.656 70.2264 171.386 70.8304 171.367C71.4824 171.348 71.9624 171.639 71.9917 172.352C72.017 173.008 71.6397 173.327 70.9557 173.338ZM69.4237 174.867C70.4637 175.264 71.5304 175.291 72.5757 174.895C74.3117 174.239 74.8197 172.226 73.5397 170.872C73.149 170.46 73.209 170.291 73.4717 169.879C74.0264 169.011 73.921 168.092 73.2984 167.307C72.4104 166.186 71.137 166.059 69.8437 166.238C68.8997 166.367 68.0877 166.807 67.7677 167.81C67.701 168.022 67.6637 168.284 67.725 168.491C68.1064 169.767 68.509 171.032 67.705 172.006C67.705 173.574 68.253 174.419 69.4237 174.867Z" fill="#F7EECA"/>
<path d="M77.9433 170.788C78.7127 170.835 79.0713 171.331 79.086 172.088C79.0553 172.784 78.6793 173.137 77.9993 173.133C77.2033 173.129 76.7927 172.64 76.7873 171.908C76.7833 171.211 77.2033 170.744 77.9433 170.788ZM79.2673 174.964C80.654 174.513 81.1847 173.695 81.1713 172.087C81.158 170.596 80.578 169.747 79.242 169.335C78.818 169.204 78.366 169.161 77.8553 169.065C78.302 168.197 78.7313 167.361 79.1713 166.504C77.446 166.265 76.9033 166.276 76.6633 166.717C75.9567 168.024 75.09 169.275 74.7447 170.735C74.442 172.008 74.5593 173.279 75.6313 174.228C76.6887 175.165 77.922 175.401 79.2673 174.964Z" fill="#F6EDCA"/>
<path d="M133.578 177.961C134.111 177.833 134.282 177.535 134.177 177.051C133.587 174.335 132.949 171.634 131.565 169.134C130.945 169.697 130.422 170.27 129.803 170.711C128.985 171.294 128.718 172.027 128.855 172.989C129.101 174.729 129.327 176.471 129.541 178.217C129.606 178.759 129.855 178.977 130.382 178.834C131.447 178.545 132.505 178.219 133.578 177.961Z" fill="white"/>
<path d="M60.9537 161.953C60.6723 161.679 60.4483 161.181 59.931 161.407C59.3843 161.647 59.5337 162.133 59.579 162.603C59.9577 166.47 59.8617 170.334 59.4763 174.194C59.2563 176.403 58.539 178.494 57.9977 180.671C59.591 179.558 60.6003 178.061 61.0657 176.177C62.087 172.059 61.707 167.869 61.7283 163.699C61.731 163.051 61.4403 162.425 60.9537 161.953Z" fill="#FEFEFE"/>
<path d="M156.117 175.383C155.861 175.457 155.616 175.567 155.366 175.663C148.556 178.275 141.801 181.048 134.717 182.879C133.46 183.204 132.213 183.569 130.957 183.904C130.638 183.989 130.316 184.087 130.445 184.493C130.609 185.012 130.949 184.607 131.188 184.559C131.71 184.453 132.214 184.253 132.736 184.147C140.69 182.517 148.293 179.653 156.096 177.493C156.734 177.316 157.272 177.097 157.23 176.273C157.289 175.471 156.925 175.147 156.117 175.383Z" fill="#FEFEFE"/>
<path d="M110.899 189.977C113.17 189.672 115.538 189.214 117.862 188.561C120.879 187.71 123.883 186.814 126.89 185.93C127.258 185.822 127.664 185.701 127.486 185.161C127.302 184.598 126.944 184.948 126.647 185.018C125.606 185.265 124.564 185.509 123.526 185.77C119.298 186.833 115.072 187.906 110.842 188.958C110.403 189.066 109.958 189.144 110.028 189.705C110.086 190.162 110.488 189.969 110.899 189.977Z" fill="#FEFDFD"/>
<path d="M98.1549 175.109C97.3095 175.114 96.4655 175.122 95.6215 175.144C95.2469 175.153 94.7575 175.109 94.7749 175.658C94.7895 176.113 95.2122 176.269 95.6109 176.286C96.5695 176.329 97.5295 176.361 98.4882 176.341C99.8082 176.313 100.37 175.878 100.436 174.584C100.563 172.169 100.66 169.746 100.267 167.34C100.196 166.901 100.002 166.532 99.6549 166.272C99.4255 166.098 99.1802 165.848 98.8362 166.09C98.5535 166.29 98.5949 166.572 98.6869 166.814C99.2495 168.297 99.0829 169.844 99.1135 171.373C99.1122 172.296 99.0855 173.218 99.1215 174.14C99.1495 174.852 98.8015 175.105 98.1549 175.109Z" fill="#FEFEFE"/>
<path d="M92.3683 175.333C92.6537 175.448 92.9737 175.52 93.2123 175.221C93.4457 174.928 93.1817 174.714 93.047 174.509C91.9523 172.852 91.451 171.04 91.5937 169.21C91.5937 168.632 91.627 168.205 91.5843 167.786C91.5457 167.405 91.7057 166.856 91.0723 166.802C90.4483 166.749 90.3083 167.254 90.2363 167.706C89.8897 169.91 89.9603 172.069 91.0603 174.089C91.3617 174.642 91.775 175.093 92.3683 175.333Z" fill="#FDFCFD"/>
<path d="M92.8783 166.207C94.5089 166.639 96.0143 166.273 97.4303 165.411C95.9423 165.107 94.4716 165.217 93.0023 165.245C92.7049 165.252 92.3049 165.195 92.2289 165.563C92.1383 166.004 92.5503 166.12 92.8783 166.207Z" fill="#F9F9F9"/>
<path d="M70.8306 171.368C70.2253 171.385 69.7813 171.657 69.8226 172.35C69.8653 173.068 70.3306 173.328 70.9559 173.337C71.6386 173.328 72.0173 173.009 71.9919 172.352C71.9626 171.638 71.4826 171.348 70.8306 171.368Z" fill="#CE1E33"/>
<path d="M70.7278 169.58C71.2331 169.616 71.5971 169.346 71.6878 168.736C71.5945 168.211 71.2518 167.908 70.6771 167.922C70.2291 167.932 69.8451 168.076 69.8171 168.632C69.7838 169.276 70.1945 169.542 70.7278 169.58Z" fill="#CE1E33"/>
<path d="M77.9986 173.134C78.6799 173.138 79.0546 172.785 79.0866 172.087C79.0706 171.33 78.7132 170.834 77.9426 170.789C77.2039 170.745 76.7826 171.211 76.7879 171.909C76.7919 172.641 77.2039 173.13 77.9986 173.134Z" fill="#CE1E33"/>
</svg>
